<?xml version="1.0" encoding="UTF-8" standalone="no"?>
<svg xmlns="http://www.w3.org/2000/svg" version="1.1" viewBox="0 0 210 240" id="Layer_1">
    <defs id="defs3838"/>
    <style id="style3829">.st0{fill:#7289DA;}</style>
    <g id="g3846">
        <path
                class="st0"
                d="m 83.317674,100.75488 c -6.813488,0 -12.192558,5.97675 -12.192558,13.26837 0,7.29163 5.498605,13.26838 12.192558,13.26838 6.81349,0 12.19255,-5.97675 12.19255,-13.26838 0.11954,-7.29162 -5.37906,-13.26837 -12.19255,-13.26837 z m 43.630226,0 c -6.81349,0 -12.19255,5.97675 -12.19255,13.26837 0,7.29163 5.4986,13.26838 12.19255,13.26838 6.81349,0 12.19256,-5.97675 12.19256,-13.26838 0,-7.29162 -5.37907,-13.26837 -12.19256,-13.26837 z"
                id="path3831"
                style="fill:#7289da;stroke-width:1.19534874"/>
        <path
                class="st0"
                d="M 185.04186,0.46511628 H 24.865116 C 11.357674,0.46511628 0.36046542,11.462325 0.36046542,25.089303 V 186.70047 c 0,13.62697 10.99720858,24.62418 24.50465058,24.62418 H 160.41767 l -6.33535,-22.11396 15.30047,14.22466 14.46372,13.3879 25.7,22.71163 V 25.089303 c 0,-13.626978 -10.99721,-24.62418672 -24.50465,-24.62418672 z M 138.90139,156.57768 c 0,0 -4.30325,-5.14 -7.8893,-9.68233 15.65907,-4.4228 21.63581,-14.22466 21.63581,-14.22466 -4.90093,3.22745 -9.56279,5.49861 -13.74651,7.05256 -5.97674,2.51024 -11.71442,4.18373 -17.33255,5.14 -11.47535,2.15163 -21.994426,1.55396 -30.959536,-0.11953 -6.81349,-1.31488 -12.670699,-3.22744 -17.57163,-5.14 -2.749302,-1.07582 -5.737674,-2.39069 -8.726047,-4.06419 -0.358605,-0.23906 -0.717209,-0.3586 -1.075814,-0.59766 -0.239069,-0.11954 -0.358604,-0.23908 -0.478139,-0.35862 -2.151628,-1.19535 -3.346977,-2.03208 -3.346977,-2.03208 0,0 5.737675,9.56278 20.918605,14.10511 -3.586046,4.54232 -8.008837,9.9214 -8.008837,9.9214 -26.417209,-0.83675 -36.45814,-18.16931 -36.45814,-18.16931 0,-38.49023 17.213023,-69.688835 17.213023,-69.688835 C 70.288372,55.809768 86.664654,56.168373 86.664654,56.168373 l 1.19535,1.434418 C 66.343721,63.818605 56.422325,73.26186 56.422325,73.26186 c 0,0 2.629767,-1.434418 7.052558,-3.466511 12.790233,-5.61814 22.950701,-7.172093 27.134421,-7.530698 0.71721,-0.119534 1.31488,-0.239069 2.03209,-0.239069 7.29163,-0.956279 15.539526,-1.195349 24.146046,-0.23907 11.35581,1.314883 23.54837,4.661861 35.98,11.475348 0,0 -9.44326,-8.965116 -29.76419,-15.18093 l 1.67349,-1.912557 c 0,0 16.37628,-0.358605 33.58931,12.551162 0,0 17.21301,31.198605 17.21301,69.688835 0,0 -10.16046,17.33256 -36.57767,18.16931 z"
                id="path3833"
                style="fill:#7289da;stroke-width:1.19534874"/>
    </g>
    <!-- width = 210 height = 240 ratio = 0.875 -->
</svg>
